<svg xmlns="http://www.w3.org/2000/svg" width="1024" height="1024" viewBox="0 0 1024 1024">
  <rect width="1024" height="1024" fill="#060D1A"/>
  <g fill="none" stroke="#22D3EE" stroke-width="116" stroke-linecap="round" stroke-linejoin="round">
    <!-- stem -->
    <path d="M 372 302 L 372 722"/>
    <!-- lower leg -->
    <path d="M 424 512 L 690 722"/>
    <!-- upper arm + crashing barrel -->
    <path d="M 424.0 512.0 L 433.7 509.3 L 443.2 506.3 L 452.6 503.0 L 461.7 499.5 L 470.7 495.7 L 479.5 491.7 L 488.1 487.5 L 496.6 483.0 L 504.8 478.2 L 512.9 473.2 L 520.8 467.9 L 528.5 462.4 L 536.0 456.6 L 543.4 450.6 L 550.6 444.3 L 557.6 437.8 L 564.4 431.0 L 571.0 424.0 L 577.4 416.7 L 583.7 409.2 L 589.8 401.4 L 595.7 393.3 L 601.4 385.0 L 607.0 376.5 L 612.3 367.7 L 617.5 358.7 L 622.5 349.4 L 627.4 339.8 L 632.0 330.0 L 632.0 330.0 L 636.6 330.3 L 641.1 330.8 L 645.6 331.7 L 650.0 332.8 L 654.3 334.2 L 658.5 335.8 L 662.5 337.7 L 666.4 339.8 L 670.2 342.1 L 673.8 344.7 L 677.1 347.5 L 680.3 350.4 L 683.3 353.5 L 686.1 356.8 L 688.6 360.3 L 690.9 363.9 L 693.0 367.5 L 694.8 371.3 L 696.4 375.2 L 697.7 379.2 L 698.8 383.2 L 699.6 387.2 L 700.1 391.2 L 700.4 395.3 L 700.4 399.3 L 700.2 403.3 L 699.8 407.3 L 699.1 411.2 L 698.1 415.0 L 696.9 418.8 L 695.5 422.4 L 693.9 426.0 L 692.1 429.4 L 690.1 432.6 L 687.9 435.7 L 685.5 438.6 L 683.0 441.4 L 680.3 444.0 L 677.4 446.4 L 674.5 448.6 L 671.4 450.6 L 668.2 452.4 L 665.0 454.0 L 661.6 455.3 L 658.3 456.5 L 654.8 457.4 L 651.4 458.1 L 647.9 458.6 L 644.4 458.8 L 641.0 458.9 L 637.6 458.7 L 634.2 458.3 L 630.9 457.7 L 627.6 456.9 L 624.4 455.9 L 621.3 454.7 L 618.3 453.4 L 615.4 451.8 L 612.7 450.1 L 610.1 448.3 L 607.6 446.2 L 605.2 444.1 L 603.1 441.8 L 601.0 439.4 L 599.2 436.9 L 597.5 434.4 L 596.0 431.7 L 594.7 429.0 L 593.6 426.2 L 592.6 423.4 L 591.9 420.5 L 591.3 417.6 L 590.9 414.7 L 590.7 411.8 L 590.7 409.0 L 590.8 406.1 L 591.2 403.3 L 591.7 400.6 L 592.3 397.9 L 593.2 395.3 L 594.2 392.7 L 595.3 390.3 L 596.6 387.9 L 598.0 385.7 L 599.6 383.5 L 601.2 381.5 L 603.0 379.6 L 604.9 377.9 L 606.8 376.2 L 608.8 374.8 L 611.0 373.4 L 613.1 372.2 L 615.3 371.2 L 617.6 370.3 L 619.9 369.6"/>
  </g>
  <!-- barrel eye (focal) -->
  <circle cx="636" cy="404" r="29" fill="#EAF8FF"/>
  <!-- foam spray flinging up-and-out off the crest -->
  <circle cx="604" cy="284" r="18" fill="#EAF8FF"/>
  <circle cx="540" cy="250" r="12" fill="#EAF8FF"/>
  <circle cx="490" cy="234" r="7.5" fill="#EAF8FF"/>
</svg>